<?xml version="1.0" standalone="no"?>
<!DOCTYPE svg PUBLIC "-//W3C//DTD SVG 20010904//EN"
 "http://www.w3.org/TR/2001/REC-SVG-20010904/DTD/svg10.dtd">
<svg version="1.0" xmlns="http://www.w3.org/2000/svg"
 width="500.000000pt" height="500.000000pt" viewBox="0 0 500.000000 500.000000"
 preserveAspectRatio="xMidYMid meet">
<metadata>
Created by potrace 1.16, written by Peter Selinger 2001-2019
</metadata>
<linearGradient id="rad" x1="60%" y1="80%">
   <stop offset="0" stop-color="#5c0464"/>
   <stop offset="1" stop-color="#e93799"/>
</linearGradient>
<g transform="translate(0.000000,500.000000) scale(0.100000,-0.100000)"
fill="url(#rad)" stroke="none">
<path d="M2235 4971 c-141 -44 -232 -92 -335 -176 -135 -111 -239 -266 -296
-445 -35 -107 -39 -165 -39 -545 l0 -340 45 3 c25 2 86 13 135 24 50 10 118
23 151 28 79 12 110 24 118 47 4 10 9 131 11 269 4 321 12 375 66 470 117 205
446 290 643 167 115 -72 179 -147 219 -260 25 -69 26 -77 27 -353 0 -161 5
-290 10 -300 7 -12 30 -22 67 -29 32 -6 90 -17 128 -25 167 -35 247 -47 253
-41 9 9 9 631 0 715 -6 59 -20 123 -46 205 -5 17 -22 57 -38 90 -110 232 -308
403 -574 496 -58 20 -87 23 -260 26 -190 3 -197 2 -285 -26z"/>
<path d="M2240 3373 c-257 -20 -559 -81 -810 -163 -121 -40 -194 -70 -202 -83
-13 -20 -10 -1265 3 -1272 21 -14 235 78 329 141 58 39 146 132 174 184 34 63
45 151 46 363 0 201 -33 171 245 223 118 22 355 44 475 44 124 0 368 -23 495
-46 50 -8 111 -20 137 -24 97 -18 87 37 90 -528 2 -349 -1 -519 -9 -572 -33
-207 -80 -347 -174 -520 -59 -108 -205 -279 -314 -366 -81 -64 -204 -144 -223
-144 -14 0 -337 157 -915 446 -136 68 -250 124 -252 124 -27 0 47 -187 132
-335 97 -169 175 -269 317 -410 116 -115 223 -205 246 -205 5 0 10 -3 10 -7 0
-15 134 -94 260 -154 47 -22 97 -46 112 -54 42 -24 136 -19 204 10 325 141
589 348 788 619 81 110 138 203 185 301 23 50 49 101 56 115 16 31 57 151 87
255 l23 80 3 878 c1 482 1 877 0 877 -2 0 -55 18 -118 39 -223 76 -411 122
-640 157 -140 21 -206 26 -440 28 -151 2 -295 1 -320 -1z"/>
<path d="M2437 2361 c-48 -10 -115 -56 -144 -100 -13 -19 -31 -58 -40 -88 -14
-46 -15 -62 -5 -111 14 -67 59 -135 116 -177 l41 -31 5 -206 c3 -114 7 -208
10 -211 36 -32 126 -37 161 -8 24 19 24 22 26 221 l3 202 64 62 c76 73 91 114
83 218 -8 99 -56 172 -142 216 -29 15 -133 22 -178 13z"/>
</g>
</svg>
